<?xml version="1.0" encoding="UTF-8" standalone="no"?>
<!-- Created with Inkscape (http://www.inkscape.org/) -->

<svg
   xmlns:dc="http://purl.org/dc/elements/1.1/"
   xmlns:cc="http://creativecommons.org/ns#"
   xmlns:rdf="http://www.w3.org/1999/02/22-rdf-syntax-ns#"
   xmlns:svg="http://www.w3.org/2000/svg"
   xmlns="http://www.w3.org/2000/svg"
   xmlns:sodipodi="http://sodipodi.sourceforge.net/DTD/sodipodi-0.dtd"
   xmlns:inkscape="http://www.inkscape.org/namespaces/inkscape"
   width="210mm"
   height="297mm"
   viewBox="0 0 210 297"
   version="1.1"
   id="svg8"
   inkscape:export-filename="/home/henrique/Documentos/Estágio/logo_lupa4.png"
   inkscape:export-xdpi="96"
   inkscape:export-ydpi="96"
   inkscape:version="0.92.4 (5da689c313, 2019-01-14)">
  <defs
     id="defs2" />
  <sodipodi:namedview
     id="base"
     pagecolor="#ffffff"
     bordercolor="#666666"
     borderopacity="1.0"
     inkscape:pageopacity="0.0"
     inkscape:pageshadow="2"
     inkscape:zoom="0.35355339"
     inkscape:cx="310.22379"
     inkscape:cy="863.7817"
     inkscape:document-units="mm"
     inkscape:current-layer="g11303"
     showgrid="false"
     inkscape:window-width="1366"
     inkscape:window-height="704"
     inkscape:window-x="0"
     inkscape:window-y="27"
     inkscape:window-maximized="1" />
  <metadata
     id="metadata5">
    <rdf:RDF>
      <cc:Work
         rdf:about="">
        <dc:format>image/svg+xml</dc:format>
        <dc:type
           rdf:resource="http://purl.org/dc/dcmitype/StillImage" />
        <dc:title></dc:title>
      </cc:Work>
    </rdf:RDF>
  </metadata>
  <g
     inkscape:label="Camada 1"
     inkscape:groupmode="layer"
     id="layer1">
    <g
       id="g11303"
       transform="matrix(0.52355156,0,0,0.52355156,32.810788,43.944483)">
      <path
         id="path11248"
         d="m 298.294,306.314 c -2.048,0 -4.095,-0.781 -5.657,-2.343 l -28.08,-28.079 c -10.378,7.933 -23.04,12.229 -36.393,12.229 -16.066,0 -31.134,-6.219 -42.426,-17.511 -23.394,-23.394 -23.394,-61.458 -0.001,-84.851 h 0.001 c 11.292,-11.292 26.359,-17.51 42.426,-17.51 16.067,0 31.134,6.219 42.425,17.511 11.291,11.291 17.51,26.358 17.51,42.425 0,13.354 -4.295,26.015 -12.229,36.394 l 28.081,28.08 c 3.124,3.124 3.124,8.189 0,11.313 -1.563,1.561 -3.61,2.342 -5.657,2.342 z M 197.051,197.072 c -17.154,17.155 -17.154,45.068 0,62.223 8.271,8.27 19.319,12.825 31.112,12.825 11.793,0 22.842,-4.555 31.11,-12.825 8.27,-8.27 12.824,-19.319 12.824,-31.112 0,-11.793 -4.555,-22.842 -12.824,-31.111 -8.269,-8.27 -19.317,-12.824 -31.11,-12.824 -11.793,0 -22.842,4.555 -31.112,12.824 z m -74.718,107.989 c -1.098,0 -2.199,-0.226 -3.233,-0.683 L 94.896,293.68 72.287,304.301 c -2.477,1.165 -5.378,0.98 -7.69,-0.487 -2.312,-1.468 -3.711,-4.016 -3.711,-6.753 V 262.335 H 38.39 c -4.418,0 -8,-3.582 -8,-8 V 8 c 0,-4.418 3.582,-8 8,-8 h 205.28 c 4.418,0 8,3.582 8,8 v 136.694 c 0,4.418 -3.582,8 -8,8 -4.418,0 -8,-3.582 -8,-8 V 16 H 46.39 v 230.335 h 99.771 c 4.418,0 8,3.582 8,8 0,4.418 -3.582,8 -8,8 h -15.828 v 34.726 c 0,2.705 -1.367,5.227 -3.634,6.704 -1.319,0.859 -2.839,1.296 -4.366,1.296 z M 94.794,276.89 c 1.102,0 2.204,0.228 3.234,0.683 l 16.305,7.207 V 262.336 H 76.885 v 22.129 l 14.508,-6.815 c 1.076,-0.507 2.238,-0.76 3.401,-0.76 z M 8.02,262.335 c -4.418,0 -8,-3.582 -8,-8 V 8 c 0,-4.418 3.582,-8 8,-8 4.418,0 8,3.582 8,8 v 246.335 c 0,4.418 -3.581,8 -8,8 z"
         inkscape:connector-curvature="0"
         sodipodi:nodetypes="sccssccscscccsccscscscsccccscssssssssscccssscscssccccccssssssss" />
      <g
         id="g11250">
</g>
      <g
         id="g11252">
</g>
      <g
         id="g11254">
</g>
      <g
         id="g11256">
</g>
      <g
         id="g11258">
</g>
      <g
         id="g11260">
</g>
      <g
         id="g11262">
</g>
      <g
         id="g11264">
</g>
      <g
         id="g11266">
</g>
      <g
         id="g11268">
</g>
      <g
         id="g11270">
</g>
      <g
         id="g11272">
</g>
      <g
         id="g11274">
</g>
      <g
         id="g11276">
</g>
      <g
         id="g11278">
</g>
      <text
         xml:space="preserve"
         style="font-style:normal;font-weight:normal;font-size:20.21450043px;line-height:1.25;font-family:sans-serif;letter-spacing:0px;word-spacing:0px;fill:#000000;fill-opacity:1;stroke:none;stroke-width:0.50536251"
         x="88.939117"
         y="98.25779"
         id="text11307"><tspan
           sodipodi:role="line"
           id="tspan11305"
           x="88.939117"
           y="98.25779"
           style="font-style:normal;font-variant:normal;font-weight:normal;font-stretch:normal;font-size:67.38166809px;font-family:Uroob;-inkscape-font-specification:Uroob;stroke-width:0.50536251">LUPA</tspan></text>
    </g>
  </g>
  <g
     inkscape:groupmode="layer"
     id="layer2"
     inkscape:label="Camada 2">
    <text
       inkscape:export-xdpi="96.57412"
       inkscape:export-ydpi="96.57412"
       xml:space="preserve"
       style="font-style:normal;font-weight:normal;font-size:10.58333302px;line-height:1.25;font-family:sans-serif;letter-spacing:0px;word-spacing:0px;fill:#000000;fill-opacity:1;stroke:none;stroke-width:0.26458332"
       x="131.45709"
       y="18.856039"
       id="text9912"><tspan
         sodipodi:role="line"
         id="tspan9910"
         x="131.45709"
         y="28.219809"
         style="stroke-width:0.26458332"></tspan></text>
  </g>
</svg>
